<?xml version="1.0" encoding="UTF-8"?>
<svg id="Layer_1" xmlns="http://www.w3.org/2000/svg" version="1.1" viewBox="0 0 964.3 2707.5">
  <!-- Generator: Adobe Illustrator 29.8.2, SVG Export Plug-In . SVG Version: 2.1.1 Build 3)  -->
  <defs>
    <style>
      .st0 {
        fill: #fff;
        stroke: #fff;
        stroke-miterlimit: 10;
      }
    </style>
  </defs>
  <path class="st0" d="M459.6,690c-2.7-14-7.9-26.2-15.7-36.7s-18.2-18.9-31.3-25.2c-13.1-6.3-30.1-9.5-51.1-9.5s-52.5,7-70.8,21c-18.2,14-27.3,36.6-27.3,68v165.3h200.2v-138.7c0-14.8-1.3-29.6-4-44.1h0Z"/>
  <path class="st0" d="M706.8,1967.7c-1.6-12.3-4.9-24.3-9.7-35.7-5.6-13.5-13-26.1-22.1-37.5-9.7-12.4-22.8-23.5-39.4-33.3s-37.4-17.9-62.3-24.2c-24.9-6.3-55.1-9.5-90.5-9.4-34.3,0-65,2.9-92.1,8.8-27.1,5.8-50.1,15.4-69.1,28.7-18.7,13-33.7,30.8-43.4,51.5-9.9,21-14.8,46.9-14.9,77.8v112.1h445.4v-110.7c-.1-9.4-.8-18.7-2-28Z"/>
  <path class="st0" d="M482.2,2C217,2,2,607.2,2,1353.8s215,1351.8,480.2,1351.8,480.2-605.2,480.2-1351.8S747.3,2,482.2,2ZM199,1575.4h574.1v66.6H199v-66.6ZM773.1,2001.4v171.6H199v-171.7c0-77,22.5-136.4,67.6-177.9,45-41.6,113.7-62.4,205.8-62.3,48.3,0,91,4.7,128.3,14s68.6,23.8,94,43.4c25.5,19.6,44.9,44.6,58.3,75s20.1,66.3,20.1,107.9h0ZM773.1,1288.2h-234.8l-339.3,193.3v-79.2l273.4-149.9-273.4-146.4v-75.6l339.3,191.2h234.8v66.6ZM773.1,872.9v66.6H199v-235.4c0-47.6,13.4-84.9,40.2-111.7s63.5-40.3,110.1-40.2c34.8,0,65.4,6.9,91.7,20.7s44.2,35.8,53.9,66.2h1.6c3.2-14.4,8.6-26.3,16.1-35.4,7.4-9,16.5-16.4,26.9-21.7,11.1-5.6,22.8-9.6,35-11.9,12.8-2.6,26.3-4.6,40.2-6,14-.9,28.2-1.6,42.6-2.1,14.3-.4,28.5-1.6,42.6-3.5,13.4-1.8,26.7-4.5,39.8-8.1,12-3.2,23.3-8.5,33.4-15.8v74.2c-5.9,4.7-13.9,7.8-24.1,9.5-11.3,1.7-22.7,2.8-34.2,3.1-12.6.5-26.1.9-40.6,1.4-14.3.5-28.5,1.9-42.6,4.2-13.9,1.9-27.2,4.2-39.8,7-12.6,2.8-23.6,7.2-32.9,13.3-9.3,6-17.1,14.2-22.5,23.8-5.6,9.8-8.5,22.9-8.4,39.2v162.6h245.2Z"/>
</svg>